<svg xmlns="http://www.w3.org/2000/svg" viewBox="0 0 500 500"><defs><style>.a{fill:#fbd4d3;}.b{fill:#4db0e3;}.c{fill:#ef4a24;}</style></defs><title>XENPHIRA_LOGO</title><path class="a" d="M46.55,672.57H-84L183.54,253.48l-274-426H41.32l209,521.25,207.8-521.25H590.44L317,253.48l267,419.09H452.87L250,250Z"/><path class="b" d="M250,250,408.19-79.51h102.3L302.28,247.28,515.46,579.51H412.27l-162-406.46L87.28,579.51H-15.46L198.17,247.28-10.49-79.51H91.36Z"/><path class="c" d="M250,250,370,0h77.61l-158,247.94L451.41,500h-78.3L250.17,191.62,126.55,500h-78L210.68,247.94,52.37,0h77.27Z"/></svg>